<svg width="32" height="32" viewBox="0 0 32 32" fill="none" xmlns="http://www.w3.org/2000/svg">
  <path d="M15.8984 29.7C8.92344 29.7 1.39844 25.325 1.39844 15.725C1.39844 6.125 8.92344 1.75 15.8984 1.75C19.7734 1.75 23.3484 3.025 25.9984 5.35C28.8734 7.9 30.3984 11.5 30.3984 15.725C30.3984 19.95 28.8734 23.525 25.9984 26.075C23.3484 28.4 19.7484 29.7 15.8984 29.7Z" fill="url(#paint0_radial_3214_20420)" />
  <path d="M18.4282 18.5007C18.1807 18.1132 18.2932 17.5957 18.6807 17.3482C18.7457 17.3057 18.8182 17.2732 18.8932 17.2507C19.7382 16.9182 20.6382 16.7382 21.5457 16.7207C22.4532 16.7357 23.3532 16.9057 24.2057 17.2207C24.6582 17.3507 24.9207 17.8232 24.7882 18.2757C24.7682 18.3432 24.7407 18.4107 24.7057 18.4707C24.4507 18.8507 23.9707 19.0082 23.5407 18.8557C22.9132 18.6157 22.2507 18.4807 21.5782 18.4557C20.9032 18.4782 20.2357 18.6132 19.6057 18.8557C19.1782 19.0307 18.6882 18.8832 18.4282 18.5007Z" fill="#422B0D" />
  <path d="M7.27805 18.5007C7.03055 18.1082 7.14805 17.5932 7.54055 17.3457C7.60555 17.3057 7.67555 17.2732 7.75055 17.2507C8.59555 16.9157 9.49555 16.7382 10.4056 16.7207C11.3131 16.7357 12.2131 16.9057 13.0631 17.2207C13.5156 17.3532 13.7756 17.8282 13.6456 18.2807C13.6256 18.3482 13.5981 18.4107 13.5631 18.4707C13.3081 18.8507 12.8281 19.0107 12.3956 18.8557C11.7681 18.6157 11.1056 18.4807 10.4331 18.4557C9.75805 18.4782 9.09055 18.6132 8.46055 18.8557C8.03305 19.0332 7.53805 18.8857 7.27805 18.5007Z" fill="#422B0D" />
  <path d="M15.999 21.7998C18.699 21.7998 20.449 23.7748 20.924 24.6998C21.099 25.0498 21.099 25.3498 20.949 25.4748C20.789 25.5748 20.584 25.5748 20.424 25.4748C20.344 25.4423 20.269 25.3998 20.199 25.3498C18.974 24.4698 17.5065 23.9898 15.999 23.9748C14.4965 23.9948 13.0315 24.4648 11.799 25.3248C11.729 25.3748 11.654 25.4173 11.574 25.4498C11.414 25.5498 11.209 25.5498 11.049 25.4498C10.899 25.2998 10.899 25.0248 11.074 24.6748C11.549 23.7748 13.299 21.7998 15.999 21.7998Z" fill="#422B0D" />
  <path d="M7.41406 14.1293C5.29656 14.1293 3.66406 12.0793 3.66406 10.3218C3.66406 9.08429 4.21656 7.65179 4.99656 5.66679C5.09406 5.37429 5.22406 5.08179 5.35406 4.75429C5.72656 3.82429 6.05656 2.81679 6.55656 1.94429C6.79406 1.51929 7.33156 1.36929 7.75406 1.60679C7.89406 1.68679 8.01156 1.80179 8.09156 1.94429C8.55656 2.80179 8.87406 3.72929 9.35906 4.81179C10.7266 7.87179 11.1091 9.10929 11.1091 10.3468C11.1566 12.0793 9.49906 14.1293 7.41406 14.1293Z" fill="#44B3E6" />
  <path d="M9.70117 11.7817C9.22367 12.5317 8.13867 12.3817 8.13867 11.1542C8.13867 10.3692 8.29867 6.34175 8.97117 6.90425C10.0687 7.82175 10.3812 10.7492 9.70117 11.7817Z" fill="#81D4FA" />
  <defs>
    <radialGradient id="paint0_radial_3214_20420" cx="0" cy="0" r="1" gradientUnits="userSpaceOnUse" gradientTransform="translate(15.8984 15.725) scale(14.2399 14.2399)">
      <stop offset="0.5" stopColor="#FDE030" />
      <stop offset="0.885417" stopColor="#FFCC41" />
      <stop offset="1" stopColor="#FFC468" />
    </radialGradient>
  </defs>
</svg>
