<svg width="32" height="32" viewBox="0 0 32 32" fill="none" xmlns="http://www.w3.org/2000/svg">
  <path d="M15.8984 29.7C8.92344 29.7 1.39844 25.325 1.39844 15.725C1.39844 6.125 8.92344 1.75 15.8984 1.75C19.7734 1.75 23.3484 3.025 25.9984 5.35C28.8734 7.9 30.3984 11.5 30.3984 15.725C30.3984 19.95 28.8734 23.525 25.9984 26.075C23.3484 28.4 19.7484 29.7 15.8984 29.7Z" fill="url(#paint0_radial_3214_20432)" />
  <path d="M22.25 21.999H9.75C9.1975 21.999 8.75 21.5515 8.75 20.999C8.75 20.4465 9.1975 19.999 9.75 19.999H22.25C22.8025 19.999 23.25 20.4465 23.25 20.999C23.25 21.5515 22.8025 21.999 22.25 21.999Z" fill="#422B0D" />
  <path d="M11.168 11.4844C10.1205 11.4844 9.16797 12.3694 9.16797 13.8394C9.16797 15.3094 10.1205 16.1919 11.168 16.1919C12.2155 16.1919 13.168 15.3069 13.168 13.8394C13.168 12.3719 12.2155 11.4844 11.168 11.4844Z" fill="#422B0D" />
  <path d="M11.0716 12.4675C10.7166 12.2975 10.2891 12.4475 10.1166 12.8025C9.98405 13.08 10.0441 13.4125 10.2666 13.6275C10.6216 13.7975 11.0491 13.6475 11.2216 13.2925C11.3541 13.015 11.2941 12.6825 11.0716 12.4675Z" fill="#896024" />
  <path d="M20.75 11.4844C19.7025 11.4844 18.75 12.3694 18.75 13.8394C18.75 15.3094 19.7025 16.1919 20.75 16.1919C21.7975 16.1919 22.75 15.3069 22.75 13.8394C22.75 12.3719 21.8025 11.4844 20.75 11.4844Z" fill="#422B0D" />
  <path d="M20.6575 12.4675C20.3025 12.2975 19.875 12.4475 19.7025 12.8025C19.57 13.08 19.63 13.4125 19.8525 13.6275C20.2075 13.7975 20.635 13.6475 20.8075 13.2925C20.94 13.015 20.88 12.6825 20.6575 12.4675Z" fill="#896024" />
  <defs>
  <radialGradient id="paint0_radial_3214_20432" cx="0" cy="0" r="1" gradientUnits="userSpaceOnUse" gradientTransform="translate(15.8984 15.725) scale(14.2399 14.2399)">
    <stop offset="0.5" stop-color="#FDE030" />
    <stop offset="0.885417" stop-color="#FFCC41" />
    <stop offset="1" stop-color="#FFC468" />
  </radialGradient>
  </defs>
</svg>
