<svg width="32" height="32" viewBox="0 0 32 32" fill="none" xmlns="http://www.w3.org/2000/svg">
<path fill-rule="evenodd" clip-rule="evenodd" d="M15.7904 1.14688C15.2999 1.3869 15.6775 0.773279 10.2478 10.1551C9.38207 11.651 7.95387 14.1172 7.07396 15.6356C6.19414 17.154 5.38198 18.6413 5.26919 18.9406C4.97426 19.7236 4.91645 20.8211 5.12167 21.7381C5.46653 23.2787 6.17434 24.9719 6.59604 25.2653C6.89407 25.4727 7.27843 25.4474 7.55121 25.2023C7.67968 25.0869 9.01779 22.8743 10.5247 20.2853C12.0318 17.6963 14.5096 13.4439 16.0311 10.8356C17.5526 8.22729 18.8816 5.90413 18.9844 5.67324C19.1276 5.35165 19.1628 5.10874 19.1348 4.63642C19.0944 3.95643 18.9814 3.69124 18.1379 2.29695C17.7296 1.6219 17.5147 1.3636 17.228 1.20318C16.7829 0.954207 16.2284 0.932395 15.7904 1.14688ZM19.6208 8.84138C19.1129 9.10825 18.9199 9.38426 17.3683 12.0633C16.1451 14.1753 16.0179 14.5285 16.2398 15.1965C16.3956 15.6656 16.7739 16.0852 17.2241 16.2883C17.565 16.4422 17.8876 16.4595 20.4184 16.4595C22.9418 16.4595 23.2725 16.4418 23.6089 16.2896C24.0916 16.0713 24.6479 15.457 24.7751 15.0021C25.0187 14.1306 24.9308 13.9026 23.254 11.0572C21.9664 8.87196 21.7871 8.70194 20.7175 8.65141C20.1492 8.62448 19.9767 8.6544 19.6208 8.84138ZM13.0783 20.1501C12.4851 20.4437 12.3945 20.5642 11.1234 22.7524C9.87612 24.8994 9.77985 25.1196 9.77318 25.8399C9.76662 26.5477 10.163 27.4066 10.6751 27.7946C10.8613 27.9357 12.3908 28.7001 14.0739 29.4933C16.9658 30.8561 17.1716 30.938 17.8154 30.9825C18.4396 31.0256 18.5469 31.005 19.0949 30.7371C19.8042 30.3901 20.7804 29.4162 21.1206 28.716C21.4299 28.0796 21.437 27.0542 21.1365 26.3908C20.8356 25.7265 15.5719 20.4625 14.8821 20.1363C14.2589 19.8414 13.693 19.8458 13.0783 20.1501Z" fill="white"/>
<path d="M17.6869 20.032C17.4191 19.4174 17.6335 18.7875 18.2357 18.4184C18.5311 18.2374 18.6753 18.2319 22.4827 18.2562C26.3987 18.2811 26.4269 18.2827 26.9143 18.5016C27.785 18.8926 28.5293 19.906 28.5326 20.7049C28.536 21.5464 28.4143 21.7332 26.8176 23.3379C25.115 25.0488 24.7077 25.3202 23.8484 25.3169C22.9284 25.3132 22.6907 25.1408 20.1501 22.6337C18.8671 21.3678 17.7587 20.197 17.6869 20.032Z" fill="#2161FF"/>
</svg>
