<svg width="142" height="32" viewBox="0 0 142 32" fill="none" xmlns="http://www.w3.org/2000/svg">
<path d="M6 5H18L10 22H4L6 5Z" fill="black"/>
<path d="M26 27L14 27L22 10L28 10L26 27Z" fill="#1F5AFF"/>
<path d="M114.5 10H118.79L122.5 17.4829V10H125V22H122.5V19.5H120.71L117 12.0172V22H114.5V10Z" fill="black"/>
<path d="M98 10H88V12H91.75V22H94.25V12H98V10Z" fill="black"/>
<path d="M137 10H130.5V12H128V22H137V20H130.5V17H136V15H130.5V12H137V10Z" fill="black"/>
<path d="M62 10H55.5V12H53V22H62V20H55.5V17H61V15H55.5V12H62V10Z" fill="black"/>
<path d="M42.5 15.5002L47.2092 10H50.5004L45.4021 15.9546L51.0003 22.0001H47.5931L42.5 16.5001V22.0001H40V10H42.5V15.5002Z" fill="black"/>
<path d="M63.9995 10L68.2501 16.7499V22H70.7501V16.75L75.0008 10H72.0464L69.5001 14.0433L66.9539 10H63.9995Z" fill="black"/>
<path opacity="0.9" d="M85.75 10.375C85.75 10.375 84 9.75 81.5 9.75C78 9.75 76.75 11.125 76.75 13.25C76.75 15.125 77.75 16.375 80.5 17C82.75 17.5114 83.5 17.625 83.5 18.625C83.5 19.625 82.625 19.875 81 19.875C79.125 19.875 76.75 18.875 76.75 18.875V21.375C77.4583 21.6667 79.25 22.25 81.5 22.25C84.125 22.25 86.25 21.5 86.25 18.75C86.25 16.125 84.7414 15.4148 81.75 14.75C79.5 14.25 79.25 13.625 79.25 13.25C79.25 12.3953 79.875 11.875 81.5 11.875C82.5 11.875 83.9215 12.1802 85.75 12.625V10.375Z" fill="black"/>
<path fill-rule="evenodd" clip-rule="evenodd" d="M105.75 22.25C109.59 22.25 111.75 19.5 111.75 16C111.75 12.5 109.59 9.75 105.75 9.75C101.91 9.75 99.75 12.5 99.75 16C99.75 19.5 101.91 22.25 105.75 22.25ZM105.75 20C107.99 20 109.25 18.24 109.25 16C109.25 13.76 107.99 12 105.75 12C103.51 12 102.25 13.76 102.25 16C102.25 18.24 103.51 20 105.75 20Z" fill="black"/>
</svg>
